<svg width="668" height="668" viewBox="0 0 668 668" fill="none" xmlns="http://www.w3.org/2000/svg">
<path d="M634 359H392.333C383.493 359 375.014 362.512 368.763 368.763C362.512 375.014 359 383.493 359 392.333V634C359 642.841 362.512 651.319 368.763 657.57C375.014 663.821 383.493 667.333 392.333 667.333H634C642.84 667.333 651.319 663.821 657.57 657.57C663.821 651.319 667.333 642.841 667.333 634V392.333C667.333 383.493 663.821 375.014 657.57 368.763C651.319 362.512 642.84 359 634 359ZM600.666 584H434V534H600.666V584ZM600.666 500.667H434V450.667H600.666V500.667Z" fill="white"/>
<path d="M275.666 0.666687H33.9998C25.1593 0.666687 16.6808 4.17858 10.4296 10.4298C4.1784 16.681 0.666504 25.1595 0.666504 34V275.667C0.666504 284.507 4.1784 292.986 10.4296 299.237C16.6808 305.488 25.1593 309 33.9998 309H275.666C284.507 309 292.985 305.488 299.237 299.237C305.488 292.986 309 284.507 309 275.667V34C309 25.1595 305.488 16.681 299.237 10.4298C292.985 4.17858 284.507 0.666687 275.666 0.666687ZM234 175.667H175.666V234H125.666V175.667H67.3332V125.667H125.666V67.3334H175.666V125.667H234V175.667Z" fill="white"/>
<path d="M275.666 359H33.9998C25.1593 359 16.6808 362.512 10.4296 368.763C4.1784 375.014 0.666504 383.493 0.666504 392.333V634C0.666504 642.841 4.1784 651.319 10.4296 657.57C16.6808 663.821 25.1593 667.333 33.9998 667.333H275.666C284.507 667.333 292.985 663.821 299.237 657.57C305.488 651.319 309 642.841 309 634V392.333C309 383.493 305.488 375.014 299.237 368.763C292.985 362.512 284.507 359 275.666 359ZM227.333 559L192.333 594L150.666 552.333L109 594L73.9998 559L115.666 517.333L73.9998 475.667L109 440.667L150.666 482.333L192.333 440.667L227.333 475.667L185.667 517.333L227.333 559Z" fill="white"/>
<path d="M634 0.666687H392.333C383.493 0.666687 375.014 4.17858 368.763 10.4298C362.512 16.681 359 25.1595 359 34V275.667C359 284.507 362.512 292.986 368.763 299.237C375.014 305.488 383.493 309 392.333 309H634C642.84 309 651.319 305.488 657.57 299.237C663.821 292.986 667.333 284.507 667.333 275.667V34C667.333 25.1595 663.821 16.681 657.57 10.4298C651.319 4.17858 642.84 0.666687 634 0.666687ZM600.666 175.667H434V125.667H600.666V175.667Z" fill="white"/>
</svg>
